<?xml version="1.0" encoding="UTF-8" standalone="no"?><!-- Generator: Gravit.io -->
<svg xmlns="http://www.w3.org/2000/svg" xmlns:xlink="http://www.w3.org/1999/xlink"
    style="isolation:isolate" viewBox="0 0 878 1189" width="878pt" height="1189pt">
    <path
        d=" M 450 0 C 576.024 0 702.048 0 828.536 0.469 C 829 159.265 829 317.592 828.996 475.919 C 828.995 483.97 828.973 483.994 821.049 483.995 C 748.385 484.001 675.721 484.002 603.057 483.989 C 596.246 483.988 596.018 483.8 596.017 477.525 C 596.001 367.529 596.032 257.533 595.92 147.538 C 595.915 142.543 597.444 140.868 602.495 140.912 C 626.159 141.121 649.826 141 673.492 141.001 C 682.992 141.002 682.999 141.008 682.999 150.524 C 683.001 231.854 682.998 313.184 683.007 394.514 C 683.008 401.976 683.045 402.098 690.544 401.971 C 704.848 401.728 719.149 401.27 733.453 401.02 C 742.703 400.858 742.997 400.672 742.998 391.429 C 743.001 296.1 743.012 200.77 742.962 105.441 C 742.96 100.971 742.086 96.495 742.178 92.033 C 742.347 83.831 739.841 85.019 734.027 85.016 C 671.529 84.992 609.032 85 546.534 85.001 C 537.008 85.001 537.001 85.008 537.001 94.498 C 537 240.159 537 385.82 537.002 531.481 C 537.002 533.147 537.09 534.816 537.024 536.48 C 536.899 539.637 538.351 541.086 541.514 540.978 C 543.678 540.905 545.846 540.998 548.013 540.998 C 658.009 541 768.004 541 878 541 C 878 756.91 878 972.82 878 1189 C 751.976 1189 625.952 1189 499.464 1188.531 C 499 1178.064 499 1168.065 499 1158.065 C 499 1002.077 499 846.089 499.004 690.101 C 499.005 682.03 499.026 682.006 506.931 682.005 C 579.592 681.999 652.253 681.998 724.914 682.01 C 731.744 682.011 731.982 682.204 731.983 688.446 C 731.998 806.104 731.971 923.762 732.078 1041.42 C 732.083 1046.362 730.651 1048.138 725.547 1048.09 C 702.551 1047.873 679.552 1048.043 656.554 1047.983 C 643.658 1047.949 645.022 1049.361 645.017 1036.522 C 644.984 948.862 645.002 861.202 644.993 773.542 C 644.992 766.043 644.959 766.017 637.51 766.008 C 623.011 765.989 608.513 765.992 594.014 766.005 C 586.028 766.012 586.005 766.028 586.005 774.018 C 585.999 881.677 586 989.335 586.005 1096.994 C 586.005 1104.972 586.028 1104.995 594.025 1104.995 C 656.521 1105.002 719.016 1105.001 781.511 1104.999 C 790.993 1104.999 790.999 1104.992 790.999 1095.457 C 791 941.802 791 788.147 790.999 634.492 C 790.999 632.992 790.894 631.486 790.994 629.994 C 791.239 626.344 789.568 624.786 785.959 625 C 783.966 625.119 781.961 625.001 779.961 625.001 C 673.302 625 566.643 625.005 459.985 624.993 C 449.2 624.992 450.008 625.773 450.007 614.953 C 449.998 409.969 450 204.984 450 0 Z "
        id="Path" fill="rgb(91,168,41)" />
    <path
        d=" M 48 0 C 174.357 0 300.715 0 427.536 0.469 C 428 205.089 428 409.24 427.999 613.391 C 427.999 615.724 427.908 618.059 427.983 620.39 C 428.081 623.481 426.805 625.083 423.576 624.975 C 421.413 624.902 419.244 624.998 417.078 624.998 C 310.419 625 203.761 625 97.102 625.001 C 94.936 625.001 92.767 625.091 90.603 625.018 C 87.506 624.914 85.912 626.207 86.026 629.431 C 86.096 631.427 86.002 633.43 86.002 635.429 C 86 738.088 86 840.747 86 943.406 C 86.001 995.069 86.055 1046.732 85.92 1098.394 C 85.908 1103.306 87.297 1105.097 92.427 1105.086 C 156.755 1104.946 221.083 1104.952 285.412 1105.08 C 290.345 1105.089 292.208 1103.674 292.09 1098.554 C 291.799 1085.895 292 1073.225 292 1060.559 C 292 964.9 292.001 869.24 291.993 773.581 C 291.993 766.044 291.96 766.018 284.549 766.008 C 270.55 765.988 256.551 765.998 242.552 766.001 C 233.008 766.003 233.001 766.007 233.001 775.479 C 232.999 863.806 233.002 952.132 232.993 1040.459 C 232.992 1047.957 232.959 1047.988 225.509 1047.992 C 201.844 1048.008 178.179 1048.004 154.514 1047.997 C 146.018 1047.995 146.003 1047.982 146.003 1039.483 C 146 923.158 146 806.834 146.003 690.509 C 146.003 682.018 146.018 682.003 154.522 682.003 C 226.017 681.999 297.512 681.994 369.006 682.007 C 379.796 682.009 378.992 681.223 378.993 692.038 C 379.003 857.692 379 1023.346 379 1189 C 252.719 1189 126.439 1189 0 1189 C 0 973.309 0 757.619 0.469 541.464 C 111.761 540.999 222.585 541.001 333.409 540.993 C 340.783 540.993 340.982 540.859 340.983 534.559 C 340.998 386.905 340.976 239.25 341.077 91.595 C 341.081 86.672 339.68 84.904 334.563 84.915 C 270.235 85.054 205.907 85.048 141.579 84.92 C 136.635 84.91 134.911 86.356 134.917 91.453 C 135.037 192.278 135.002 293.103 135.019 393.928 C 135.02 399.891 135.958 400.808 142.046 400.966 C 156.514 401.342 170.982 401.723 185.452 401.974 C 194.99 402.14 194.998 402.041 194.999 392.518 C 195.001 311.191 194.998 229.864 195.007 148.538 C 195.008 141.043 195.041 141.012 202.494 141.008 C 226.159 140.992 249.823 140.996 273.488 141.003 C 281.982 141.006 281.997 141.018 281.997 149.52 C 282.001 258.178 282.001 366.835 281.997 475.493 C 281.997 483.982 281.981 483.997 273.475 483.997 C 201.481 484.001 129.487 484 57.493 483.999 C 48.007 483.999 48.001 483.992 48.001 474.461 C 48 316.308 48 158.154 48 0 Z "
        id="Path" fill="rgb(91,168,41)" />
</svg>